# xmcd
#
# Track frame offsets: 
#        150
#        18112
#        38262
#        61155
#        81417
#        107742
#        135727
#        156832
#        177345
#        195840
#        215192
#        235792
#        265265
#
# Disc length: 3844 seconds
#
# Revision: 4
# Processed by: cddbd v1.5.2PL0 Copyright (c) Steve Scherf et al.
# Submitted via: ExactAudioCopy v1.0b3
#
DISCID=a50f020d
DTITLE=Peabo Bryson - Unconditional Love
DYEAR=1999
DGENRE=Soul
TTITLE0=Eye On You
TTITLE1=My Heart Belongs To You
TTITLE2=Light The World (Album Mix)(Duet with Debbie Gibson)
TTITLE3=Unconditional Love
TTITLE4=Did You Ever Know
TTITLE5=Ain't Nobody
TTITLE6=On And On
TTITLE7=We've Come Too Far
TTITLE8=The Gift (Duet with Roberta Flack)
TTITLE9=I Wish I Could
TTITLE10=Somebody In Your Life
TTITLE11=A Song For You
TTITLE12=Light The World (Single Mix)(Duet with Debbie Gibson)
EXTD=
EXTT0=
EXTT1=
EXTT2=
EXTT3=
EXTT4=
EXTT5=
EXTT6=
EXTT7=
EXTT8=
EXTT9=
EXTT10=
EXTT11=
EXTT12=
PLAYORDER=
